<svg version="1.1" id="Layer_1" xmlns="http://www.w3.org/2000/svg" x="0" y="0" viewBox="0 0 508 508" style="enable-background:new 0 0 508 508" xml:space="preserve"><circle style="fill:#275763" cx="254" cy="254" r="254"/><path style="fill:#fff" d="M121.6 103.6v301.2c0 6.8 5.6 12.4 12.4 12.4h183.6v-56c0-6.8 5.6-12.4 12.4-12.4h56V103.6c0-6.8-5.6-12.4-12.4-12.4H134c-6.8-.4-12.4 5.2-12.4 12.4z"/><path style="fill:#e6e9ee" d="m317.6 417.2 68.8-68.8h-56c-6.8 0-12.4 5.6-12.4 12.4v56.4h-.4z"/><path style="fill:#ffd05b" d="M152 132h37.2v37.2H152z"/><path style="fill:#ff7058" d="M152 195.2h37.2v37.2H152z"/><path style="fill:#4cdbc4" d="M152 258.4h37.2v37.2H152z"/><path style="fill:#e6e9ee" d="M206 132h150v10.4H206zM206 158.8h94.4v10.4H206zM206 195.2h150v10.4H206zM206 222h94.4v10.4H206zM206 258.4h150v10.4H206zM206 285.2h94.4v10.4H206z"/></svg>